<svg xmlns="http://www.w3.org/2000/svg" viewBox="0 0 500 500" width="500" height="500">
  <rect width="500" height="500" fill="white"/>
  <g transform="translate(250,250)" fill="none" stroke="#111" stroke-width="0.8">
    <!-- Centre lotus -->
    <circle cx="0" cy="0" r="6" fill="#111" stroke="none"/>
    <circle cx="0" cy="0" r="18"/>
    <!-- 12 pétales intérieures courtes -->
    <g>
      <path d="M0,-20 C6,-30 6,-42 0,-50 C-6,-42 -6,-30 0,-20Z" fill="#111" stroke="none" opacity="0.85"/>
      <path d="M0,-20 C6,-30 6,-42 0,-50 C-6,-42 -6,-30 0,-20Z" fill="#111" stroke="none" opacity="0.85" transform="rotate(30)"/>
      <path d="M0,-20 C6,-30 6,-42 0,-50 C-6,-42 -6,-30 0,-20Z" fill="#111" stroke="none" opacity="0.85" transform="rotate(60)"/>
      <path d="M0,-20 C6,-30 6,-42 0,-50 C-6,-42 -6,-30 0,-20Z" fill="#111" stroke="none" opacity="0.85" transform="rotate(90)"/>
      <path d="M0,-20 C6,-30 6,-42 0,-50 C-6,-42 -6,-30 0,-20Z" fill="#111" stroke="none" opacity="0.85" transform="rotate(120)"/>
      <path d="M0,-20 C6,-30 6,-42 0,-50 C-6,-42 -6,-30 0,-20Z" fill="#111" stroke="none" opacity="0.85" transform="rotate(150)"/>
      <path d="M0,-20 C6,-30 6,-42 0,-50 C-6,-42 -6,-30 0,-20Z" fill="#111" stroke="none" opacity="0.85" transform="rotate(180)"/>
      <path d="M0,-20 C6,-30 6,-42 0,-50 C-6,-42 -6,-30 0,-20Z" fill="#111" stroke="none" opacity="0.85" transform="rotate(210)"/>
      <path d="M0,-20 C6,-30 6,-42 0,-50 C-6,-42 -6,-30 0,-20Z" fill="#111" stroke="none" opacity="0.85" transform="rotate(240)"/>
      <path d="M0,-20 C6,-30 6,-42 0,-50 C-6,-42 -6,-30 0,-20Z" fill="#111" stroke="none" opacity="0.85" transform="rotate(270)"/>
      <path d="M0,-20 C6,-30 6,-42 0,-50 C-6,-42 -6,-30 0,-20Z" fill="#111" stroke="none" opacity="0.85" transform="rotate(300)"/>
      <path d="M0,-20 C6,-30 6,-42 0,-50 C-6,-42 -6,-30 0,-20Z" fill="#111" stroke="none" opacity="0.85" transform="rotate(330)"/>
    </g>
    <circle cx="0" cy="0" r="55"/>
    <!-- 12 pétales moyennes -->
    <g>
      <path d="M0,-57 C14,-80 14,-110 0,-130 C-14,-110 -14,-80 0,-57Z"/>
      <path d="M0,-57 C14,-80 14,-110 0,-130 C-14,-110 -14,-80 0,-57Z" transform="rotate(30)"/>
      <path d="M0,-57 C14,-80 14,-110 0,-130 C-14,-110 -14,-80 0,-57Z" transform="rotate(60)"/>
      <path d="M0,-57 C14,-80 14,-110 0,-130 C-14,-110 -14,-80 0,-57Z" transform="rotate(90)"/>
      <path d="M0,-57 C14,-80 14,-110 0,-130 C-14,-110 -14,-80 0,-57Z" transform="rotate(120)"/>
      <path d="M0,-57 C14,-80 14,-110 0,-130 C-14,-110 -14,-80 0,-57Z" transform="rotate(150)"/>
      <path d="M0,-57 C14,-80 14,-110 0,-130 C-14,-110 -14,-80 0,-57Z" transform="rotate(180)"/>
      <path d="M0,-57 C14,-80 14,-110 0,-130 C-14,-110 -14,-80 0,-57Z" transform="rotate(210)"/>
      <path d="M0,-57 C14,-80 14,-110 0,-130 C-14,-110 -14,-80 0,-57Z" transform="rotate(240)"/>
      <path d="M0,-57 C14,-80 14,-110 0,-130 C-14,-110 -14,-80 0,-57Z" transform="rotate(270)"/>
      <path d="M0,-57 C14,-80 14,-110 0,-130 C-14,-110 -14,-80 0,-57Z" transform="rotate(300)"/>
      <path d="M0,-57 C14,-80 14,-110 0,-130 C-14,-110 -14,-80 0,-57Z" transform="rotate(330)"/>
    </g>
    <circle cx="0" cy="0" r="138"/>
    <!-- Petits triangles entre les pétales -->
    <g stroke-width="0.6">
      <path d="M0,-142 L8,-155 L-8,-155 Z" fill="#111" stroke="none" transform="rotate(15)"/>
      <path d="M0,-142 L8,-155 L-8,-155 Z" fill="#111" stroke="none" transform="rotate(45)"/>
      <path d="M0,-142 L8,-155 L-8,-155 Z" fill="#111" stroke="none" transform="rotate(75)"/>
      <path d="M0,-142 L8,-155 L-8,-155 Z" fill="#111" stroke="none" transform="rotate(105)"/>
      <path d="M0,-142 L8,-155 L-8,-155 Z" fill="#111" stroke="none" transform="rotate(135)"/>
      <path d="M0,-142 L8,-155 L-8,-155 Z" fill="#111" stroke="none" transform="rotate(165)"/>
      <path d="M0,-142 L8,-155 L-8,-155 Z" fill="#111" stroke="none" transform="rotate(195)"/>
      <path d="M0,-142 L8,-155 L-8,-155 Z" fill="#111" stroke="none" transform="rotate(225)"/>
      <path d="M0,-142 L8,-155 L-8,-155 Z" fill="#111" stroke="none" transform="rotate(255)"/>
      <path d="M0,-142 L8,-155 L-8,-155 Z" fill="#111" stroke="none" transform="rotate(285)"/>
      <path d="M0,-142 L8,-155 L-8,-155 Z" fill="#111" stroke="none" transform="rotate(315)"/>
      <path d="M0,-142 L8,-155 L-8,-155 Z" fill="#111" stroke="none" transform="rotate(345)"/>
    </g>
    <circle cx="0" cy="0" r="165"/>
    <!-- 12 grandes pétales externes -->
    <g>
      <path d="M0,-168 C20,-190 20,-220 0,-240 C-20,-220 -20,-190 0,-168Z"/>
      <path d="M0,-168 C20,-190 20,-220 0,-240 C-20,-220 -20,-190 0,-168Z" transform="rotate(30)"/>
      <path d="M0,-168 C20,-190 20,-220 0,-240 C-20,-220 -20,-190 0,-168Z" transform="rotate(60)"/>
      <path d="M0,-168 C20,-190 20,-220 0,-240 C-20,-220 -20,-190 0,-168Z" transform="rotate(90)"/>
      <path d="M0,-168 C20,-190 20,-220 0,-240 C-20,-220 -20,-190 0,-168Z" transform="rotate(120)"/>
      <path d="M0,-168 C20,-190 20,-220 0,-240 C-20,-220 -20,-190 0,-168Z" transform="rotate(150)"/>
      <path d="M0,-168 C20,-190 20,-220 0,-240 C-20,-220 -20,-190 0,-168Z" transform="rotate(180)"/>
      <path d="M0,-168 C20,-190 20,-220 0,-240 C-20,-220 -20,-190 0,-168Z" transform="rotate(210)"/>
      <path d="M0,-168 C20,-190 20,-220 0,-240 C-20,-220 -20,-190 0,-168Z" transform="rotate(240)"/>
      <path d="M0,-168 C20,-190 20,-220 0,-240 C-20,-220 -20,-190 0,-168Z" transform="rotate(270)"/>
      <path d="M0,-168 C20,-190 20,-220 0,-240 C-20,-220 -20,-190 0,-168Z" transform="rotate(300)"/>
      <path d="M0,-168 C20,-190 20,-220 0,-240 C-20,-220 -20,-190 0,-168Z" transform="rotate(330)"/>
    </g>
  </g>
</svg>
