<svg xmlns="http://www.w3.org/2000/svg" viewBox="0 0 500 500" width="500" height="500">
  <rect width="500" height="500" fill="white"/>
  <g transform="translate(250,250)" fill="none" stroke="#111" stroke-width="0.7">
    <!-- Mandala ornamental fin — 16 symétries -->
    <circle cx="0" cy="0" r="5" fill="#111" stroke="none"/>
    <circle cx="0" cy="0" r="12"/>
    <circle cx="0" cy="0" r="22"/>
    <!-- 16 points internes -->
    <g fill="#111" stroke="none">
      <circle cx="0" cy="-30" r="2"/>
      <circle cx="0" cy="-30" r="2" transform="rotate(22.5)"/>
      <circle cx="0" cy="-30" r="2" transform="rotate(45)"/>
      <circle cx="0" cy="-30" r="2" transform="rotate(67.5)"/>
      <circle cx="0" cy="-30" r="2" transform="rotate(90)"/>
      <circle cx="0" cy="-30" r="2" transform="rotate(112.5)"/>
      <circle cx="0" cy="-30" r="2" transform="rotate(135)"/>
      <circle cx="0" cy="-30" r="2" transform="rotate(157.5)"/>
      <circle cx="0" cy="-30" r="2" transform="rotate(180)"/>
      <circle cx="0" cy="-30" r="2" transform="rotate(202.5)"/>
      <circle cx="0" cy="-30" r="2" transform="rotate(225)"/>
      <circle cx="0" cy="-30" r="2" transform="rotate(247.5)"/>
      <circle cx="0" cy="-30" r="2" transform="rotate(270)"/>
      <circle cx="0" cy="-30" r="2" transform="rotate(292.5)"/>
      <circle cx="0" cy="-30" r="2" transform="rotate(315)"/>
      <circle cx="0" cy="-30" r="2" transform="rotate(337.5)"/>
    </g>
    <circle cx="0" cy="0" r="38"/>
    <!-- 8 pétales fins internes -->
    <g>
      <path d="M0,-40 C5,-55 5,-68 0,-78 C-5,-68 -5,-55 0,-40Z"/>
      <path d="M0,-40 C5,-55 5,-68 0,-78 C-5,-68 -5,-55 0,-40Z" transform="rotate(45)"/>
      <path d="M0,-40 C5,-55 5,-68 0,-78 C-5,-68 -5,-55 0,-40Z" transform="rotate(90)"/>
      <path d="M0,-40 C5,-55 5,-68 0,-78 C-5,-68 -5,-55 0,-40Z" transform="rotate(135)"/>
      <path d="M0,-40 C5,-55 5,-68 0,-78 C-5,-68 -5,-55 0,-40Z" transform="rotate(180)"/>
      <path d="M0,-40 C5,-55 5,-68 0,-78 C-5,-68 -5,-55 0,-40Z" transform="rotate(225)"/>
      <path d="M0,-40 C5,-55 5,-68 0,-78 C-5,-68 -5,-55 0,-40Z" transform="rotate(270)"/>
      <path d="M0,-40 C5,-55 5,-68 0,-78 C-5,-68 -5,-55 0,-40Z" transform="rotate(315)"/>
    </g>
    <!-- 8 pétales larges intermédiaires -->
    <g>
      <path d="M0,-40 C16,-62 16,-78 0,-95 C-16,-78 -16,-62 0,-40Z" transform="rotate(22.5)"/>
      <path d="M0,-40 C16,-62 16,-78 0,-95 C-16,-78 -16,-62 0,-40Z" transform="rotate(67.5)"/>
      <path d="M0,-40 C16,-62 16,-78 0,-95 C-16,-78 -16,-62 0,-40Z" transform="rotate(112.5)"/>
      <path d="M0,-40 C16,-62 16,-78 0,-95 C-16,-78 -16,-62 0,-40Z" transform="rotate(157.5)"/>
      <path d="M0,-40 C16,-62 16,-78 0,-95 C-16,-78 -16,-62 0,-40Z" transform="rotate(202.5)"/>
      <path d="M0,-40 C16,-62 16,-78 0,-95 C-16,-78 -16,-62 0,-40Z" transform="rotate(247.5)"/>
      <path d="M0,-40 C16,-62 16,-78 0,-95 C-16,-78 -16,-62 0,-40Z" transform="rotate(292.5)"/>
      <path d="M0,-40 C16,-62 16,-78 0,-95 C-16,-78 -16,-62 0,-40Z" transform="rotate(337.5)"/>
    </g>
    <circle cx="0" cy="0" r="100"/>
    <!-- Dentelle externe — arcs et points -->
    <g>
      <path d="M0,-103 C8,-115 8,-128 0,-140 C-8,-128 -8,-115 0,-103Z" stroke-width="0.5"/>
      <path d="M0,-103 C8,-115 8,-128 0,-140 C-8,-128 -8,-115 0,-103Z" stroke-width="0.5" transform="rotate(22.5)"/>
      <path d="M0,-103 C8,-115 8,-128 0,-140 C-8,-128 -8,-115 0,-103Z" stroke-width="0.5" transform="rotate(45)"/>
      <path d="M0,-103 C8,-115 8,-128 0,-140 C-8,-128 -8,-115 0,-103Z" stroke-width="0.5" transform="rotate(67.5)"/>
      <path d="M0,-103 C8,-115 8,-128 0,-140 C-8,-128 -8,-115 0,-103Z" stroke-width="0.5" transform="rotate(90)"/>
      <path d="M0,-103 C8,-115 8,-128 0,-140 C-8,-128 -8,-115 0,-103Z" stroke-width="0.5" transform="rotate(112.5)"/>
      <path d="M0,-103 C8,-115 8,-128 0,-140 C-8,-128 -8,-115 0,-103Z" stroke-width="0.5" transform="rotate(135)"/>
      <path d="M0,-103 C8,-115 8,-128 0,-140 C-8,-128 -8,-115 0,-103Z" stroke-width="0.5" transform="rotate(157.5)"/>
      <path d="M0,-103 C8,-115 8,-128 0,-140 C-8,-128 -8,-115 0,-103Z" stroke-width="0.5" transform="rotate(180)"/>
      <path d="M0,-103 C8,-115 8,-128 0,-140 C-8,-128 -8,-115 0,-103Z" stroke-width="0.5" transform="rotate(202.5)"/>
      <path d="M0,-103 C8,-115 8,-128 0,-140 C-8,-128 -8,-115 0,-103Z" stroke-width="0.5" transform="rotate(225)"/>
      <path d="M0,-103 C8,-115 8,-128 0,-140 C-8,-128 -8,-115 0,-103Z" stroke-width="0.5" transform="rotate(247.5)"/>
      <path d="M0,-103 C8,-115 8,-128 0,-140 C-8,-128 -8,-115 0,-103Z" stroke-width="0.5" transform="rotate(270)"/>
      <path d="M0,-103 C8,-115 8,-128 0,-140 C-8,-128 -8,-115 0,-103Z" stroke-width="0.5" transform="rotate(292.5)"/>
      <path d="M0,-103 C8,-115 8,-128 0,-140 C-8,-128 -8,-115 0,-103Z" stroke-width="0.5" transform="rotate(315)"/>
      <path d="M0,-103 C8,-115 8,-128 0,-140 C-8,-128 -8,-115 0,-103Z" stroke-width="0.5" transform="rotate(337.5)"/>
    </g>
    <circle cx="0" cy="0" r="148"/>
    <!-- 16 points finaux -->
    <g fill="#111" stroke="none">
      <circle cx="0" cy="-160" r="3"/>
      <circle cx="0" cy="-160" r="3" transform="rotate(22.5)"/>
      <circle cx="0" cy="-160" r="3" transform="rotate(45)"/>
      <circle cx="0" cy="-160" r="3" transform="rotate(67.5)"/>
      <circle cx="0" cy="-160" r="3" transform="rotate(90)"/>
      <circle cx="0" cy="-160" r="3" transform="rotate(112.5)"/>
      <circle cx="0" cy="-160" r="3" transform="rotate(135)"/>
      <circle cx="0" cy="-160" r="3" transform="rotate(157.5)"/>
      <circle cx="0" cy="-160" r="3" transform="rotate(180)"/>
      <circle cx="0" cy="-160" r="3" transform="rotate(202.5)"/>
      <circle cx="0" cy="-160" r="3" transform="rotate(225)"/>
      <circle cx="0" cy="-160" r="3" transform="rotate(247.5)"/>
      <circle cx="0" cy="-160" r="3" transform="rotate(270)"/>
      <circle cx="0" cy="-160" r="3" transform="rotate(292.5)"/>
      <circle cx="0" cy="-160" r="3" transform="rotate(315)"/>
      <circle cx="0" cy="-160" r="3" transform="rotate(337.5)"/>
    </g>
    <circle cx="0" cy="0" r="172" stroke-width="1.2"/>
  </g>
</svg>
