<svg xmlns="http://www.w3.org/2000/svg" viewBox="0 0 500 500" width="500" height="500">
  <rect width="500" height="500" fill="white"/>
  <!-- Dotwork mandala — style pointilliste -->
  <g transform="translate(250,250)">
    <!-- Cercle central solide -->
    <circle cx="0" cy="0" r="10" fill="#111"/>
    <!-- Anneau 1 : points serrés -->
    <g fill="#111">
      <circle cx="0" cy="-22" r="2.5"/>
      <circle cx="0" cy="-22" r="2.5" transform="rotate(20)"/>
      <circle cx="0" cy="-22" r="2.5" transform="rotate(40)"/>
      <circle cx="0" cy="-22" r="2.5" transform="rotate(60)"/>
      <circle cx="0" cy="-22" r="2.5" transform="rotate(80)"/>
      <circle cx="0" cy="-22" r="2.5" transform="rotate(100)"/>
      <circle cx="0" cy="-22" r="2.5" transform="rotate(120)"/>
      <circle cx="0" cy="-22" r="2.5" transform="rotate(140)"/>
      <circle cx="0" cy="-22" r="2.5" transform="rotate(160)"/>
      <circle cx="0" cy="-22" r="2.5" transform="rotate(180)"/>
      <circle cx="0" cy="-22" r="2.5" transform="rotate(200)"/>
      <circle cx="0" cy="-22" r="2.5" transform="rotate(220)"/>
      <circle cx="0" cy="-22" r="2.5" transform="rotate(240)"/>
      <circle cx="0" cy="-22" r="2.5" transform="rotate(260)"/>
      <circle cx="0" cy="-22" r="2.5" transform="rotate(280)"/>
      <circle cx="0" cy="-22" r="2.5" transform="rotate(300)"/>
      <circle cx="0" cy="-22" r="2.5" transform="rotate(320)"/>
      <circle cx="0" cy="-22" r="2.5" transform="rotate(340)"/>
    </g>
    <!-- Anneau 2 : points moyens -->
    <g fill="#111">
      <circle cx="0" cy="-42" r="2.2"/>
      <circle cx="0" cy="-42" r="2.2" transform="rotate(16)"/>
      <circle cx="0" cy="-42" r="2.2" transform="rotate(32)"/>
      <circle cx="0" cy="-42" r="2.2" transform="rotate(48)"/>
      <circle cx="0" cy="-42" r="2.2" transform="rotate(64)"/>
      <circle cx="0" cy="-42" r="2.2" transform="rotate(80)"/>
      <circle cx="0" cy="-42" r="2.2" transform="rotate(96)"/>
      <circle cx="0" cy="-42" r="2.2" transform="rotate(112)"/>
      <circle cx="0" cy="-42" r="2.2" transform="rotate(128)"/>
      <circle cx="0" cy="-42" r="2.2" transform="rotate(144)"/>
      <circle cx="0" cy="-42" r="2.2" transform="rotate(160)"/>
      <circle cx="0" cy="-42" r="2.2" transform="rotate(176)"/>
      <circle cx="0" cy="-42" r="2.2" transform="rotate(192)"/>
      <circle cx="0" cy="-42" r="2.2" transform="rotate(208)"/>
      <circle cx="0" cy="-42" r="2.2" transform="rotate(224)"/>
      <circle cx="0" cy="-42" r="2.2" transform="rotate(240)"/>
      <circle cx="0" cy="-42" r="2.2" transform="rotate(256)"/>
      <circle cx="0" cy="-42" r="2.2" transform="rotate(272)"/>
      <circle cx="0" cy="-42" r="2.2" transform="rotate(288)"/>
      <circle cx="0" cy="-42" r="2.2" transform="rotate(304)"/>
      <circle cx="0" cy="-42" r="2.2" transform="rotate(320)"/>
      <circle cx="0" cy="-42" r="2.2" transform="rotate(336)"/>
      <circle cx="0" cy="-42" r="2.2" transform="rotate(352)"/>
    </g>
    <!-- Anneau 3 : espace vide = contour seulement -->
    <circle cx="0" cy="0" r="65" fill="none" stroke="#111" stroke-width="0.5" stroke-dasharray="2,4"/>
    <!-- Anneau 4 : dense dotwork -->
    <g fill="#111">
      <circle cx="0" cy="-80" r="2.5"/>
      <circle cx="0" cy="-80" r="2.5" transform="rotate(10)"/>
      <circle cx="0" cy="-80" r="2.5" transform="rotate(20)"/>
      <circle cx="0" cy="-80" r="2.5" transform="rotate(30)"/>
      <circle cx="0" cy="-80" r="2.5" transform="rotate(40)"/>
      <circle cx="0" cy="-80" r="2.5" transform="rotate(50)"/>
      <circle cx="0" cy="-80" r="2.5" transform="rotate(60)"/>
      <circle cx="0" cy="-80" r="2.5" transform="rotate(70)"/>
      <circle cx="0" cy="-80" r="2.5" transform="rotate(80)"/>
      <circle cx="0" cy="-80" r="2.5" transform="rotate(90)"/>
      <circle cx="0" cy="-80" r="2.5" transform="rotate(100)"/>
      <circle cx="0" cy="-80" r="2.5" transform="rotate(110)"/>
      <circle cx="0" cy="-80" r="2.5" transform="rotate(120)"/>
      <circle cx="0" cy="-80" r="2.5" transform="rotate(130)"/>
      <circle cx="0" cy="-80" r="2.5" transform="rotate(140)"/>
      <circle cx="0" cy="-80" r="2.5" transform="rotate(150)"/>
      <circle cx="0" cy="-80" r="2.5" transform="rotate(160)"/>
      <circle cx="0" cy="-80" r="2.5" transform="rotate(170)"/>
      <circle cx="0" cy="-80" r="2.5" transform="rotate(180)"/>
      <circle cx="0" cy="-80" r="2.5" transform="rotate(190)"/>
      <circle cx="0" cy="-80" r="2.5" transform="rotate(200)"/>
      <circle cx="0" cy="-80" r="2.5" transform="rotate(210)"/>
      <circle cx="0" cy="-80" r="2.5" transform="rotate(220)"/>
      <circle cx="0" cy="-80" r="2.5" transform="rotate(230)"/>
      <circle cx="0" cy="-80" r="2.5" transform="rotate(240)"/>
      <circle cx="0" cy="-80" r="2.5" transform="rotate(250)"/>
      <circle cx="0" cy="-80" r="2.5" transform="rotate(260)"/>
      <circle cx="0" cy="-80" r="2.5" transform="rotate(270)"/>
      <circle cx="0" cy="-80" r="2.5" transform="rotate(280)"/>
      <circle cx="0" cy="-80" r="2.5" transform="rotate(290)"/>
      <circle cx="0" cy="-80" r="2.5" transform="rotate(300)"/>
      <circle cx="0" cy="-80" r="2.5" transform="rotate(310)"/>
      <circle cx="0" cy="-80" r="2.5" transform="rotate(320)"/>
      <circle cx="0" cy="-80" r="2.5" transform="rotate(330)"/>
      <circle cx="0" cy="-80" r="2.5" transform="rotate(340)"/>
      <circle cx="0" cy="-80" r="2.5" transform="rotate(350)"/>
    </g>
    <!-- 8 triangles pointillés -->
    <g fill="none" stroke="#111" stroke-width="0.6" stroke-dasharray="1.5,3">
      <path d="M0,-90 L0,-140" transform="rotate(0)"/>
      <path d="M0,-90 L0,-140" transform="rotate(45)"/>
      <path d="M0,-90 L0,-140" transform="rotate(90)"/>
      <path d="M0,-90 L0,-140" transform="rotate(135)"/>
      <path d="M0,-90 L0,-140" transform="rotate(180)"/>
      <path d="M0,-90 L0,-140" transform="rotate(225)"/>
      <path d="M0,-90 L0,-140" transform="rotate(270)"/>
      <path d="M0,-90 L0,-140" transform="rotate(315)"/>
    </g>
    <!-- Anneau externe dense -->
    <g fill="#111">
      <circle cx="0" cy="-148" r="2"/>
      <circle cx="0" cy="-148" r="2" transform="rotate(6)"/>
      <circle cx="0" cy="-148" r="2" transform="rotate(12)"/>
      <circle cx="0" cy="-148" r="2" transform="rotate(18)"/>
      <circle cx="0" cy="-148" r="2" transform="rotate(24)"/>
      <circle cx="0" cy="-148" r="2" transform="rotate(30)"/>
      <circle cx="0" cy="-148" r="2" transform="rotate(36)"/>
      <circle cx="0" cy="-148" r="2" transform="rotate(42)"/>
      <circle cx="0" cy="-148" r="2" transform="rotate(48)"/>
      <circle cx="0" cy="-148" r="2" transform="rotate(54)"/>
      <circle cx="0" cy="-148" r="2" transform="rotate(60)"/>
      <circle cx="0" cy="-148" r="2" transform="rotate(66)"/>
      <circle cx="0" cy="-148" r="2" transform="rotate(72)"/>
      <circle cx="0" cy="-148" r="2" transform="rotate(78)"/>
      <circle cx="0" cy="-148" r="2" transform="rotate(84)"/>
      <circle cx="0" cy="-148" r="2" transform="rotate(90)"/>
      <circle cx="0" cy="-148" r="2" transform="rotate(96)"/>
      <circle cx="0" cy="-148" r="2" transform="rotate(102)"/>
      <circle cx="0" cy="-148" r="2" transform="rotate(108)"/>
      <circle cx="0" cy="-148" r="2" transform="rotate(114)"/>
      <circle cx="0" cy="-148" r="2" transform="rotate(120)"/>
      <circle cx="0" cy="-148" r="2" transform="rotate(126)"/>
      <circle cx="0" cy="-148" r="2" transform="rotate(132)"/>
      <circle cx="0" cy="-148" r="2" transform="rotate(138)"/>
      <circle cx="0" cy="-148" r="2" transform="rotate(144)"/>
      <circle cx="0" cy="-148" r="2" transform="rotate(150)"/>
      <circle cx="0" cy="-148" r="2" transform="rotate(156)"/>
      <circle cx="0" cy="-148" r="2" transform="rotate(162)"/>
      <circle cx="0" cy="-148" r="2" transform="rotate(168)"/>
      <circle cx="0" cy="-148" r="2" transform="rotate(174)"/>
      <circle cx="0" cy="-148" r="2" transform="rotate(180)"/>
      <circle cx="0" cy="-148" r="2" transform="rotate(186)"/>
      <circle cx="0" cy="-148" r="2" transform="rotate(192)"/>
      <circle cx="0" cy="-148" r="2" transform="rotate(198)"/>
      <circle cx="0" cy="-148" r="2" transform="rotate(204)"/>
      <circle cx="0" cy="-148" r="2" transform="rotate(210)"/>
      <circle cx="0" cy="-148" r="2" transform="rotate(216)"/>
      <circle cx="0" cy="-148" r="2" transform="rotate(222)"/>
      <circle cx="0" cy="-148" r="2" transform="rotate(228)"/>
      <circle cx="0" cy="-148" r="2" transform="rotate(234)"/>
      <circle cx="0" cy="-148" r="2" transform="rotate(240)"/>
      <circle cx="0" cy="-148" r="2" transform="rotate(246)"/>
      <circle cx="0" cy="-148" r="2" transform="rotate(252)"/>
      <circle cx="0" cy="-148" r="2" transform="rotate(258)"/>
      <circle cx="0" cy="-148" r="2" transform="rotate(264)"/>
      <circle cx="0" cy="-148" r="2" transform="rotate(270)"/>
      <circle cx="0" cy="-148" r="2" transform="rotate(276)"/>
      <circle cx="0" cy="-148" r="2" transform="rotate(282)"/>
      <circle cx="0" cy="-148" r="2" transform="rotate(288)"/>
      <circle cx="0" cy="-148" r="2" transform="rotate(294)"/>
      <circle cx="0" cy="-148" r="2" transform="rotate(300)"/>
      <circle cx="0" cy="-148" r="2" transform="rotate(306)"/>
      <circle cx="0" cy="-148" r="2" transform="rotate(312)"/>
      <circle cx="0" cy="-148" r="2" transform="rotate(318)"/>
      <circle cx="0" cy="-148" r="2" transform="rotate(324)"/>
      <circle cx="0" cy="-148" r="2" transform="rotate(330)"/>
      <circle cx="0" cy="-148" r="2" transform="rotate(336)"/>
      <circle cx="0" cy="-148" r="2" transform="rotate(342)"/>
      <circle cx="0" cy="-148" r="2" transform="rotate(348)"/>
      <circle cx="0" cy="-148" r="2" transform="rotate(354)"/>
    </g>
    <circle cx="0" cy="0" r="162" fill="none" stroke="#111" stroke-width="1"/>
  </g>
</svg>
